<svg xmlns="http://www.w3.org/2000/svg" width="960" height="560" viewBox="0 0 960 560"><path fill="none" stroke="#000" stroke-width="25" stroke-miterlimit="10" d="M411.272 62.618c12.473 0 22.909 10.437 22.909 23.164 0 12.728-10.182 23.164-22.909 23.164-12.473 0-22.909-10.436-22.909-23.164.255-12.727 10.437-23.164 22.909-23.164zm136.692 385.637c12.473 0 22.909 10.437 22.909 23.163 0 12.728-10.182 23.164-22.909 23.164-12.473 0-22.909-10.437-22.909-23.164 0-12.981 10.436-23.163 22.909-23.163zm-68.219-292.983H358.327m242.582 246.656H476.945m245.637-185.055c-8.654-35.127-25.455-61.6-60.837-61.6h-60.836v-61.6c0-32.836-27.745-57.527-60.837-63.127-20.872-3.563-42.509-5.091-63.381-4.836-20.873 0-40.473 1.782-58.037 4.836-51.418 9.164-60.836 28-60.836 63.127v61.6h-45.055c-35.382 0-66.182 21.127-75.854 61.6-11.2 46.328-11.709 75.091 0 123.455 8.654 35.891 29.272 61.601 64.654 61.601h57.019v61.6c0 32.836 28.509 52.182 60.836 61.6 38.437 11.2 75.346 13.236 121.418 0 30.546-8.909 60.837-26.727 60.837-61.6v-61.6h60.836c35.382 0 48.364-24.691 60.837-61.601 11.709-38.182 11.199-74.582-.764-123.455zM358.327 401.928v-3.055c0-65.673 53.2-118.619 118.618-118.619 68.473 0 123.964-55.491 123.964-123.963v-1.019"/></svg>